<mxfile host="app.diagrams.net" agent="Mozilla/5.0 (Windows NT 10.0; Win64; x64) AppleWebKit/537.36 (KHTML, like Gecko) Chrome/127.0.0.0 Safari/537.36 OPR/113.0.0.0" version="24.7.17">
  <diagram name="1 oldal" id="Drmbw2LG8-l5uVLof142">
    <mxGraphModel dx="714" dy="2100" grid="1" gridSize="10" guides="1" tooltips="1" connect="1" arrows="1" fold="1" page="0" pageScale="1" pageWidth="827" pageHeight="1169" math="0" shadow="0">
      <root>
        <mxCell id="0" />
        <mxCell id="1" parent="0" />
        <mxCell id="SZ3AhENpPmN6v7QVJfEI-1" value="Etterem" style="ellipse;whiteSpace=wrap;html=1;labelBackgroundColor=none;gradientColor=default;fillColor=default;" parent="1" vertex="1">
          <mxGeometry x="2040" y="235" width="120" height="80" as="geometry" />
        </mxCell>
        <mxCell id="BKe6SNkLw5ovjMSRgHJT-2" value="Vendeg" style="ellipse;whiteSpace=wrap;html=1;labelBackgroundColor=none;gradientColor=default;fillColor=default;" vertex="1" parent="1">
          <mxGeometry x="2045" y="240" width="110" height="70" as="geometry" />
        </mxCell>
        <mxCell id="BKe6SNkLw5ovjMSRgHJT-3" value="Cim" style="ellipse;whiteSpace=wrap;html=1;labelBackgroundColor=none;gradientColor=default;fillColor=default;" vertex="1" parent="1">
          <mxGeometry x="2047.5" y="395" width="105" height="60" as="geometry" />
        </mxCell>
        <mxCell id="BKe6SNkLw5ovjMSRgHJT-4" value="" style="endArrow=none;html=1;rounded=0;fontSize=12;startSize=8;endSize=8;curved=1;exitX=0.5;exitY=0;exitDx=0;exitDy=0;" edge="1" parent="1" source="BKe6SNkLw5ovjMSRgHJT-3">
          <mxGeometry width="50" height="50" relative="1" as="geometry">
            <mxPoint x="2080" y="375" as="sourcePoint" />
            <mxPoint x="2100" y="315" as="targetPoint" />
          </mxGeometry>
        </mxCell>
        <mxCell id="BKe6SNkLw5ovjMSRgHJT-6" value="Varos" style="ellipse;whiteSpace=wrap;html=1;labelBackgroundColor=none;gradientColor=default;fillColor=default;" vertex="1" parent="1">
          <mxGeometry x="1930" y="485" width="105" height="60" as="geometry" />
        </mxCell>
        <mxCell id="BKe6SNkLw5ovjMSRgHJT-7" value="&lt;div&gt;Utca&lt;/div&gt;" style="ellipse;whiteSpace=wrap;html=1;labelBackgroundColor=none;gradientColor=default;fillColor=default;" vertex="1" parent="1">
          <mxGeometry x="2047.5" y="485" width="105" height="60" as="geometry" />
        </mxCell>
        <mxCell id="BKe6SNkLw5ovjMSRgHJT-8" value="&lt;div&gt;Hazszam&lt;/div&gt;" style="ellipse;whiteSpace=wrap;html=1;labelBackgroundColor=none;gradientColor=default;fillColor=default;" vertex="1" parent="1">
          <mxGeometry x="2170" y="485" width="105" height="60" as="geometry" />
        </mxCell>
        <mxCell id="BKe6SNkLw5ovjMSRgHJT-9" value="" style="endArrow=none;html=1;rounded=0;fontSize=12;startSize=8;endSize=8;curved=1;entryX=0.5;entryY=1;entryDx=0;entryDy=0;exitX=0.5;exitY=0;exitDx=0;exitDy=0;" edge="1" parent="1" source="BKe6SNkLw5ovjMSRgHJT-7" target="BKe6SNkLw5ovjMSRgHJT-3">
          <mxGeometry width="50" height="50" relative="1" as="geometry">
            <mxPoint x="2070" y="415" as="sourcePoint" />
            <mxPoint x="2120" y="365" as="targetPoint" />
          </mxGeometry>
        </mxCell>
        <mxCell id="BKe6SNkLw5ovjMSRgHJT-10" value="" style="endArrow=none;html=1;rounded=0;fontSize=12;startSize=8;endSize=8;curved=1;entryX=0.5;entryY=1;entryDx=0;entryDy=0;exitX=0.5;exitY=0;exitDx=0;exitDy=0;" edge="1" parent="1" source="BKe6SNkLw5ovjMSRgHJT-6" target="BKe6SNkLw5ovjMSRgHJT-3">
          <mxGeometry width="50" height="50" relative="1" as="geometry">
            <mxPoint x="2070" y="415" as="sourcePoint" />
            <mxPoint x="2120" y="365" as="targetPoint" />
          </mxGeometry>
        </mxCell>
        <mxCell id="BKe6SNkLw5ovjMSRgHJT-11" value="" style="endArrow=none;html=1;rounded=0;fontSize=12;startSize=8;endSize=8;curved=1;entryX=0.5;entryY=1;entryDx=0;entryDy=0;exitX=0.5;exitY=0;exitDx=0;exitDy=0;" edge="1" parent="1" source="BKe6SNkLw5ovjMSRgHJT-8" target="BKe6SNkLw5ovjMSRgHJT-3">
          <mxGeometry width="50" height="50" relative="1" as="geometry">
            <mxPoint x="2070" y="415" as="sourcePoint" />
            <mxPoint x="2120" y="365" as="targetPoint" />
          </mxGeometry>
        </mxCell>
        <mxCell id="BKe6SNkLw5ovjMSRgHJT-13" value="Nev" style="ellipse;whiteSpace=wrap;html=1;labelBackgroundColor=none;gradientColor=default;fillColor=default;" vertex="1" parent="1">
          <mxGeometry x="1832.5" y="395" width="105" height="60" as="geometry" />
        </mxCell>
        <mxCell id="BKe6SNkLw5ovjMSRgHJT-14" value="Eletkor" style="ellipse;whiteSpace=wrap;html=1;labelBackgroundColor=none;gradientColor=default;fillColor=default;" vertex="1" parent="1">
          <mxGeometry x="2275" y="395" width="105" height="60" as="geometry" />
        </mxCell>
        <mxCell id="BKe6SNkLw5ovjMSRgHJT-15" value="" style="endArrow=none;html=1;rounded=0;fontSize=12;startSize=8;endSize=8;curved=1;exitX=0.5;exitY=0;exitDx=0;exitDy=0;" edge="1" parent="1" source="BKe6SNkLw5ovjMSRgHJT-13">
          <mxGeometry width="50" height="50" relative="1" as="geometry">
            <mxPoint x="2070" y="415" as="sourcePoint" />
            <mxPoint x="2100" y="315" as="targetPoint" />
          </mxGeometry>
        </mxCell>
        <mxCell id="BKe6SNkLw5ovjMSRgHJT-16" value="" style="endArrow=none;html=1;rounded=0;fontSize=12;startSize=8;endSize=8;curved=1;exitX=0.5;exitY=0;exitDx=0;exitDy=0;" edge="1" parent="1" source="BKe6SNkLw5ovjMSRgHJT-14">
          <mxGeometry width="50" height="50" relative="1" as="geometry">
            <mxPoint x="2070" y="415" as="sourcePoint" />
            <mxPoint x="2100" y="315" as="targetPoint" />
          </mxGeometry>
        </mxCell>
        <mxCell id="BKe6SNkLw5ovjMSRgHJT-17" value="" style="rounded=0;whiteSpace=wrap;html=1;fillColor=default;fillStyle=solid;gradientColor=default;" vertex="1" parent="1">
          <mxGeometry x="1860" y="495" width="50" height="70" as="geometry" />
        </mxCell>
        <mxCell id="BKe6SNkLw5ovjMSRgHJT-18" value="" style="rounded=0;whiteSpace=wrap;html=1;fillColor=default;fillStyle=solid;gradientColor=default;" vertex="1" parent="1">
          <mxGeometry x="1957.5" y="585" width="50" height="70" as="geometry" />
        </mxCell>
        <mxCell id="BKe6SNkLw5ovjMSRgHJT-19" value="" style="rounded=0;whiteSpace=wrap;html=1;fillColor=default;fillStyle=solid;gradientColor=default;" vertex="1" parent="1">
          <mxGeometry x="2075" y="585" width="50" height="70" as="geometry" />
        </mxCell>
        <mxCell id="BKe6SNkLw5ovjMSRgHJT-20" value="" style="rounded=0;whiteSpace=wrap;html=1;fillColor=default;fillStyle=solid;gradientColor=default;" vertex="1" parent="1">
          <mxGeometry x="2197.5" y="585" width="50" height="70" as="geometry" />
        </mxCell>
        <mxCell id="BKe6SNkLw5ovjMSRgHJT-21" value="" style="endArrow=none;html=1;rounded=0;fontSize=12;startSize=8;endSize=8;curved=1;entryX=0.5;entryY=1;entryDx=0;entryDy=0;exitX=0.5;exitY=0;exitDx=0;exitDy=0;" edge="1" parent="1" source="BKe6SNkLw5ovjMSRgHJT-17" target="BKe6SNkLw5ovjMSRgHJT-13">
          <mxGeometry width="50" height="50" relative="1" as="geometry">
            <mxPoint x="1950" y="475" as="sourcePoint" />
            <mxPoint x="2000" y="425" as="targetPoint" />
          </mxGeometry>
        </mxCell>
        <mxCell id="BKe6SNkLw5ovjMSRgHJT-22" value="" style="endArrow=none;html=1;rounded=0;fontSize=12;startSize=8;endSize=8;curved=1;entryX=0.5;entryY=1;entryDx=0;entryDy=0;exitX=0.5;exitY=0;exitDx=0;exitDy=0;" edge="1" parent="1" source="BKe6SNkLw5ovjMSRgHJT-18" target="BKe6SNkLw5ovjMSRgHJT-6">
          <mxGeometry width="50" height="50" relative="1" as="geometry">
            <mxPoint x="2050" y="535" as="sourcePoint" />
            <mxPoint x="2100" y="485" as="targetPoint" />
          </mxGeometry>
        </mxCell>
        <mxCell id="BKe6SNkLw5ovjMSRgHJT-24" value="" style="endArrow=none;html=1;rounded=0;fontSize=12;startSize=8;endSize=8;curved=1;entryX=0.5;entryY=1;entryDx=0;entryDy=0;exitX=0.5;exitY=0;exitDx=0;exitDy=0;" edge="1" parent="1" source="BKe6SNkLw5ovjMSRgHJT-19" target="BKe6SNkLw5ovjMSRgHJT-7">
          <mxGeometry width="50" height="50" relative="1" as="geometry">
            <mxPoint x="2050" y="535" as="sourcePoint" />
            <mxPoint x="2100" y="485" as="targetPoint" />
          </mxGeometry>
        </mxCell>
        <mxCell id="BKe6SNkLw5ovjMSRgHJT-25" value="" style="endArrow=none;html=1;rounded=0;fontSize=12;startSize=8;endSize=8;curved=1;entryX=0.5;entryY=1;entryDx=0;entryDy=0;exitX=0.5;exitY=0;exitDx=0;exitDy=0;" edge="1" parent="1" source="BKe6SNkLw5ovjMSRgHJT-20" target="BKe6SNkLw5ovjMSRgHJT-8">
          <mxGeometry width="50" height="50" relative="1" as="geometry">
            <mxPoint x="2050" y="535" as="sourcePoint" />
            <mxPoint x="2100" y="485" as="targetPoint" />
          </mxGeometry>
        </mxCell>
        <mxCell id="BKe6SNkLw5ovjMSRgHJT-26" value="" style="rounded=0;whiteSpace=wrap;html=1;fillColor=default;fillStyle=solid;gradientColor=default;" vertex="1" parent="1">
          <mxGeometry x="2302.5" y="495" width="50" height="70" as="geometry" />
        </mxCell>
        <mxCell id="BKe6SNkLw5ovjMSRgHJT-27" value="" style="endArrow=none;html=1;rounded=0;fontSize=12;startSize=8;endSize=8;curved=1;entryX=0.5;entryY=1;entryDx=0;entryDy=0;exitX=0.5;exitY=0;exitDx=0;exitDy=0;" edge="1" parent="1" source="BKe6SNkLw5ovjMSRgHJT-26" target="BKe6SNkLw5ovjMSRgHJT-14">
          <mxGeometry width="50" height="50" relative="1" as="geometry">
            <mxPoint x="2050" y="535" as="sourcePoint" />
            <mxPoint x="2100" y="485" as="targetPoint" />
          </mxGeometry>
        </mxCell>
        <mxCell id="BKe6SNkLw5ovjMSRgHJT-28" value="FEU2E5_Vendeglatas" style="ellipse;whiteSpace=wrap;html=1;labelBackgroundColor=none;gradientColor=default;fillColor=default;" vertex="1" parent="1">
          <mxGeometry x="1670" y="-50" width="175" height="90" as="geometry" />
        </mxCell>
        <mxCell id="BKe6SNkLw5ovjMSRgHJT-29" value="" style="endArrow=none;html=1;rounded=0;fontSize=12;startSize=8;endSize=8;curved=1;exitX=0.5;exitY=1;exitDx=0;exitDy=0;entryX=0.5;entryY=0;entryDx=0;entryDy=0;" edge="1" parent="1" source="BKe6SNkLw5ovjMSRgHJT-28" target="SZ3AhENpPmN6v7QVJfEI-1">
          <mxGeometry width="50" height="50" relative="1" as="geometry">
            <mxPoint x="180" y="350" as="sourcePoint" />
            <mxPoint x="260" y="210" as="targetPoint" />
          </mxGeometry>
        </mxCell>
        <mxCell id="BKe6SNkLw5ovjMSRgHJT-30" value="Etterem" style="ellipse;whiteSpace=wrap;html=1;labelBackgroundColor=none;gradientColor=default;fillColor=default;" vertex="1" parent="1">
          <mxGeometry x="720" y="230" width="120" height="80" as="geometry" />
        </mxCell>
        <mxCell id="BKe6SNkLw5ovjMSRgHJT-31" value="Foszakacs" style="ellipse;whiteSpace=wrap;html=1;labelBackgroundColor=none;gradientColor=default;fillColor=default;" vertex="1" parent="1">
          <mxGeometry x="725" y="235" width="110" height="70" as="geometry" />
        </mxCell>
        <mxCell id="BKe6SNkLw5ovjMSRgHJT-32" value="Ekod" style="rhombus;whiteSpace=wrap;html=1;gradientColor=default;" vertex="1" parent="1">
          <mxGeometry x="460" y="308.12" width="80" height="80" as="geometry" />
        </mxCell>
        <mxCell id="BKe6SNkLw5ovjMSRgHJT-33" value="" style="endArrow=none;html=1;rounded=0;fontSize=12;startSize=8;endSize=8;curved=1;entryX=0.5;entryY=0;entryDx=0;entryDy=0;" edge="1" parent="1" target="BKe6SNkLw5ovjMSRgHJT-32">
          <mxGeometry width="50" height="50" relative="1" as="geometry">
            <mxPoint x="780" y="310" as="sourcePoint" />
            <mxPoint x="446" y="330" as="targetPoint" />
          </mxGeometry>
        </mxCell>
        <mxCell id="BKe6SNkLw5ovjMSRgHJT-38" value="Nev" style="ellipse;whiteSpace=wrap;html=1;labelBackgroundColor=none;gradientColor=default;fillColor=default;" vertex="1" parent="1">
          <mxGeometry x="720" y="390" width="105" height="60" as="geometry" />
        </mxCell>
        <mxCell id="BKe6SNkLw5ovjMSRgHJT-39" value="Eletkor" style="ellipse;whiteSpace=wrap;html=1;labelBackgroundColor=none;gradientColor=default;fillColor=default;" vertex="1" parent="1">
          <mxGeometry x="850" y="388.12" width="105" height="60" as="geometry" />
        </mxCell>
        <mxCell id="BKe6SNkLw5ovjMSRgHJT-40" value="" style="endArrow=none;html=1;rounded=0;fontSize=12;startSize=8;endSize=8;curved=1;entryX=0.5;entryY=1;entryDx=0;entryDy=0;exitX=0.5;exitY=0;exitDx=0;exitDy=0;" edge="1" parent="1" source="BKe6SNkLw5ovjMSRgHJT-38" target="BKe6SNkLw5ovjMSRgHJT-30">
          <mxGeometry width="50" height="50" relative="1" as="geometry">
            <mxPoint x="1010" y="460" as="sourcePoint" />
            <mxPoint x="1060" y="410" as="targetPoint" />
          </mxGeometry>
        </mxCell>
        <mxCell id="BKe6SNkLw5ovjMSRgHJT-41" value="" style="endArrow=none;html=1;rounded=0;fontSize=12;startSize=8;endSize=8;curved=1;entryX=0.5;entryY=1;entryDx=0;entryDy=0;exitX=0.5;exitY=0;exitDx=0;exitDy=0;" edge="1" parent="1" source="BKe6SNkLw5ovjMSRgHJT-39" target="BKe6SNkLw5ovjMSRgHJT-30">
          <mxGeometry width="50" height="50" relative="1" as="geometry">
            <mxPoint x="1010" y="460" as="sourcePoint" />
            <mxPoint x="1060" y="410" as="targetPoint" />
          </mxGeometry>
        </mxCell>
        <mxCell id="BKe6SNkLw5ovjMSRgHJT-44" value="" style="endArrow=none;html=1;rounded=0;fontSize=12;startSize=8;endSize=8;curved=1;exitX=0.5;exitY=0;exitDx=0;exitDy=0;entryX=0.5;entryY=1;entryDx=0;entryDy=0;" edge="1" parent="1" source="BKe6SNkLw5ovjMSRgHJT-30" target="BKe6SNkLw5ovjMSRgHJT-28">
          <mxGeometry width="50" height="50" relative="1" as="geometry">
            <mxPoint x="-40" y="370" as="sourcePoint" />
            <mxPoint x="240" y="120" as="targetPoint" />
          </mxGeometry>
        </mxCell>
        <mxCell id="BKe6SNkLw5ovjMSRgHJT-45" value="Vegzettseg" style="ellipse;whiteSpace=wrap;html=1;labelBackgroundColor=none;gradientColor=default;fillColor=default;" vertex="1" parent="1">
          <mxGeometry x="600" y="390" width="105" height="60" as="geometry" />
        </mxCell>
        <mxCell id="BKe6SNkLw5ovjMSRgHJT-46" value="Vegzettseg" style="ellipse;whiteSpace=wrap;html=1;labelBackgroundColor=none;gradientColor=default;fillColor=default;" vertex="1" parent="1">
          <mxGeometry x="603.5" y="391.87" width="98" height="56.25" as="geometry" />
        </mxCell>
        <mxCell id="BKe6SNkLw5ovjMSRgHJT-48" value="" style="endArrow=none;html=1;rounded=0;fontSize=12;startSize=8;endSize=8;curved=1;entryX=0.5;entryY=1;entryDx=0;entryDy=0;exitX=0.5;exitY=0;exitDx=0;exitDy=0;" edge="1" parent="1" source="BKe6SNkLw5ovjMSRgHJT-45" target="BKe6SNkLw5ovjMSRgHJT-30">
          <mxGeometry width="50" height="50" relative="1" as="geometry">
            <mxPoint x="670" y="380" as="sourcePoint" />
            <mxPoint x="720" y="330" as="targetPoint" />
          </mxGeometry>
        </mxCell>
        <mxCell id="BKe6SNkLw5ovjMSRgHJT-49" value="E-F" style="rhombus;whiteSpace=wrap;html=1;gradientColor=default;" vertex="1" parent="1">
          <mxGeometry x="980" y="311.87" width="80" height="80" as="geometry" />
        </mxCell>
        <mxCell id="BKe6SNkLw5ovjMSRgHJT-50" value="" style="endArrow=none;html=1;rounded=0;fontSize=12;startSize=8;endSize=8;curved=1;exitX=0.5;exitY=0;exitDx=0;exitDy=0;" edge="1" parent="1" source="BKe6SNkLw5ovjMSRgHJT-49">
          <mxGeometry width="50" height="50" relative="1" as="geometry">
            <mxPoint x="850" y="440" as="sourcePoint" />
            <mxPoint x="780" y="310" as="targetPoint" />
          </mxGeometry>
        </mxCell>
        <mxCell id="BKe6SNkLw5ovjMSRgHJT-54" value="" style="rounded=0;whiteSpace=wrap;html=1;fillColor=default;fillStyle=solid;gradientColor=default;" vertex="1" parent="1">
          <mxGeometry x="627.5" y="490" width="50" height="70" as="geometry" />
        </mxCell>
        <mxCell id="BKe6SNkLw5ovjMSRgHJT-55" value="" style="rounded=0;whiteSpace=wrap;html=1;fillColor=default;fillStyle=solid;gradientColor=default;" vertex="1" parent="1">
          <mxGeometry x="747.5" y="490" width="50" height="70" as="geometry" />
        </mxCell>
        <mxCell id="BKe6SNkLw5ovjMSRgHJT-56" value="" style="rounded=0;whiteSpace=wrap;html=1;fillColor=default;fillStyle=solid;gradientColor=default;" vertex="1" parent="1">
          <mxGeometry x="877.5" y="490" width="50" height="70" as="geometry" />
        </mxCell>
        <mxCell id="BKe6SNkLw5ovjMSRgHJT-59" value="" style="endArrow=none;html=1;rounded=0;fontSize=12;startSize=8;endSize=8;curved=1;entryX=0.5;entryY=1;entryDx=0;entryDy=0;exitX=0.5;exitY=0;exitDx=0;exitDy=0;" edge="1" parent="1" source="BKe6SNkLw5ovjMSRgHJT-54" target="BKe6SNkLw5ovjMSRgHJT-45">
          <mxGeometry width="50" height="50" relative="1" as="geometry">
            <mxPoint x="660" y="550" as="sourcePoint" />
            <mxPoint x="710" y="500" as="targetPoint" />
          </mxGeometry>
        </mxCell>
        <mxCell id="BKe6SNkLw5ovjMSRgHJT-60" value="" style="endArrow=none;html=1;rounded=0;fontSize=12;startSize=8;endSize=8;curved=1;entryX=0.5;entryY=1;entryDx=0;entryDy=0;exitX=0.5;exitY=0;exitDx=0;exitDy=0;" edge="1" parent="1" source="BKe6SNkLw5ovjMSRgHJT-55" target="BKe6SNkLw5ovjMSRgHJT-38">
          <mxGeometry width="50" height="50" relative="1" as="geometry">
            <mxPoint x="800" y="540" as="sourcePoint" />
            <mxPoint x="850" y="490" as="targetPoint" />
          </mxGeometry>
        </mxCell>
        <mxCell id="BKe6SNkLw5ovjMSRgHJT-61" value="" style="endArrow=none;html=1;rounded=0;fontSize=12;startSize=8;endSize=8;curved=1;entryX=0.5;entryY=1;entryDx=0;entryDy=0;exitX=0.5;exitY=0;exitDx=0;exitDy=0;" edge="1" parent="1" source="BKe6SNkLw5ovjMSRgHJT-56" target="BKe6SNkLw5ovjMSRgHJT-39">
          <mxGeometry width="50" height="50" relative="1" as="geometry">
            <mxPoint x="800" y="540" as="sourcePoint" />
            <mxPoint x="850" y="490" as="targetPoint" />
          </mxGeometry>
        </mxCell>
        <mxCell id="BKe6SNkLw5ovjMSRgHJT-62" value="Etterem" style="ellipse;whiteSpace=wrap;html=1;labelBackgroundColor=none;gradientColor=default;fillColor=default;" vertex="1" parent="1">
          <mxGeometry x="1360" y="230" width="120" height="80" as="geometry" />
        </mxCell>
        <mxCell id="BKe6SNkLw5ovjMSRgHJT-63" value="Szakacs" style="ellipse;whiteSpace=wrap;html=1;labelBackgroundColor=none;gradientColor=default;fillColor=default;" vertex="1" parent="1">
          <mxGeometry x="1365" y="235" width="110" height="70" as="geometry" />
        </mxCell>
        <mxCell id="BKe6SNkLw5ovjMSRgHJT-67" value="" style="endArrow=none;html=1;rounded=0;fontSize=12;startSize=8;endSize=8;curved=1;entryX=0.5;entryY=1;entryDx=0;entryDy=0;exitX=0.5;exitY=0;exitDx=0;exitDy=0;" edge="1" parent="1" source="BKe6SNkLw5ovjMSRgHJT-62" target="BKe6SNkLw5ovjMSRgHJT-28">
          <mxGeometry width="50" height="50" relative="1" as="geometry">
            <mxPoint x="1120" y="220" as="sourcePoint" />
            <mxPoint x="1170" y="170" as="targetPoint" />
          </mxGeometry>
        </mxCell>
        <mxCell id="BKe6SNkLw5ovjMSRgHJT-68" value="Etterem" style="ellipse;whiteSpace=wrap;html=1;labelBackgroundColor=none;gradientColor=default;fillColor=default;" vertex="1" parent="1">
          <mxGeometry x="2656.25" y="230" width="120" height="80" as="geometry" />
        </mxCell>
        <mxCell id="BKe6SNkLw5ovjMSRgHJT-69" value="Rendeles" style="ellipse;whiteSpace=wrap;html=1;labelBackgroundColor=none;gradientColor=default;fillColor=default;" vertex="1" parent="1">
          <mxGeometry x="2661.25" y="235" width="110" height="70" as="geometry" />
        </mxCell>
        <mxCell id="BKe6SNkLw5ovjMSRgHJT-70" value="Nev" style="ellipse;whiteSpace=wrap;html=1;labelBackgroundColor=none;gradientColor=default;fillColor=default;" vertex="1" parent="1">
          <mxGeometry x="1240" y="388.12" width="105" height="60" as="geometry" />
        </mxCell>
        <mxCell id="BKe6SNkLw5ovjMSRgHJT-71" value="Reszleg" style="ellipse;whiteSpace=wrap;html=1;labelBackgroundColor=none;gradientColor=default;fillColor=default;" vertex="1" parent="1">
          <mxGeometry x="1367.5" y="388.12" width="105" height="60" as="geometry" />
        </mxCell>
        <mxCell id="BKe6SNkLw5ovjMSRgHJT-73" value="Vegzettseg" style="ellipse;whiteSpace=wrap;html=1;labelBackgroundColor=none;gradientColor=default;fillColor=default;" vertex="1" parent="1">
          <mxGeometry x="1500" y="388.12" width="105" height="60" as="geometry" />
        </mxCell>
        <mxCell id="BKe6SNkLw5ovjMSRgHJT-74" value="Vegzettseg" style="ellipse;whiteSpace=wrap;html=1;labelBackgroundColor=none;gradientColor=default;fillColor=default;" vertex="1" parent="1">
          <mxGeometry x="1503.5" y="389.99" width="98" height="56.25" as="geometry" />
        </mxCell>
        <mxCell id="BKe6SNkLw5ovjMSRgHJT-75" value="" style="endArrow=none;html=1;rounded=0;fontSize=12;startSize=8;endSize=8;curved=1;entryX=0.5;entryY=1;entryDx=0;entryDy=0;exitX=0.5;exitY=0;exitDx=0;exitDy=0;" edge="1" parent="1" source="BKe6SNkLw5ovjMSRgHJT-70" target="BKe6SNkLw5ovjMSRgHJT-62">
          <mxGeometry width="50" height="50" relative="1" as="geometry">
            <mxPoint x="1350" y="420" as="sourcePoint" />
            <mxPoint x="1400" y="370" as="targetPoint" />
          </mxGeometry>
        </mxCell>
        <mxCell id="BKe6SNkLw5ovjMSRgHJT-76" value="" style="endArrow=none;html=1;rounded=0;fontSize=12;startSize=8;endSize=8;curved=1;exitX=0.5;exitY=0;exitDx=0;exitDy=0;" edge="1" parent="1" source="BKe6SNkLw5ovjMSRgHJT-71">
          <mxGeometry width="50" height="50" relative="1" as="geometry">
            <mxPoint x="1350" y="420" as="sourcePoint" />
            <mxPoint x="1420" y="310" as="targetPoint" />
          </mxGeometry>
        </mxCell>
        <mxCell id="BKe6SNkLw5ovjMSRgHJT-77" value="" style="endArrow=none;html=1;rounded=0;fontSize=12;startSize=8;endSize=8;curved=1;entryX=0.5;entryY=1;entryDx=0;entryDy=0;exitX=0.5;exitY=0;exitDx=0;exitDy=0;" edge="1" parent="1" source="BKe6SNkLw5ovjMSRgHJT-73" target="BKe6SNkLw5ovjMSRgHJT-62">
          <mxGeometry width="50" height="50" relative="1" as="geometry">
            <mxPoint x="1350" y="420" as="sourcePoint" />
            <mxPoint x="1400" y="370" as="targetPoint" />
          </mxGeometry>
        </mxCell>
        <mxCell id="BKe6SNkLw5ovjMSRgHJT-78" value="Szkod" style="rhombus;whiteSpace=wrap;html=1;gradientColor=default;" vertex="1" parent="1">
          <mxGeometry x="1145" y="311.87" width="80" height="80" as="geometry" />
        </mxCell>
        <mxCell id="BKe6SNkLw5ovjMSRgHJT-79" value="E-Sz" style="rhombus;whiteSpace=wrap;html=1;gradientColor=default;" vertex="1" parent="1">
          <mxGeometry x="1630" y="311.87" width="80" height="80" as="geometry" />
        </mxCell>
        <mxCell id="BKe6SNkLw5ovjMSRgHJT-80" value="" style="endArrow=none;dashed=1;html=1;dashPattern=1 3;strokeWidth=2;rounded=0;fontSize=12;startSize=8;endSize=8;startArrow=classic;startFill=1;edgeStyle=orthogonalEdgeStyle;exitX=1;exitY=1;exitDx=0;exitDy=0;entryX=0.5;entryY=1;entryDx=0;entryDy=0;" edge="1" parent="1" source="BKe6SNkLw5ovjMSRgHJT-32" target="BKe6SNkLw5ovjMSRgHJT-49">
          <mxGeometry width="50" height="50" relative="1" as="geometry">
            <mxPoint x="-100" y="720" as="sourcePoint" />
            <mxPoint x="530" y="720" as="targetPoint" />
            <Array as="points">
              <mxPoint x="520" y="690" />
              <mxPoint x="1020" y="690" />
            </Array>
          </mxGeometry>
        </mxCell>
        <mxCell id="BKe6SNkLw5ovjMSRgHJT-81" value="" style="endArrow=none;dashed=1;html=1;dashPattern=1 3;strokeWidth=2;rounded=0;fontSize=12;startSize=8;endSize=8;startArrow=classic;startFill=1;edgeStyle=orthogonalEdgeStyle;exitX=0.5;exitY=1;exitDx=0;exitDy=0;entryX=0.5;entryY=1;entryDx=0;entryDy=0;" edge="1" parent="1" source="BKe6SNkLw5ovjMSRgHJT-32" target="BKe6SNkLw5ovjMSRgHJT-79">
          <mxGeometry width="50" height="50" relative="1" as="geometry">
            <mxPoint x="-90" y="446.24" as="sourcePoint" />
            <mxPoint x="1380" y="520" as="targetPoint" />
            <Array as="points">
              <mxPoint x="500" y="740" />
              <mxPoint x="1670" y="740" />
            </Array>
          </mxGeometry>
        </mxCell>
        <mxCell id="BKe6SNkLw5ovjMSRgHJT-82" value="" style="endArrow=none;html=1;rounded=0;fontSize=12;startSize=8;endSize=8;curved=1;entryX=0.5;entryY=0;entryDx=0;entryDy=0;" edge="1" parent="1" target="BKe6SNkLw5ovjMSRgHJT-78">
          <mxGeometry width="50" height="50" relative="1" as="geometry">
            <mxPoint x="1420" y="312" as="sourcePoint" />
            <mxPoint x="1410" y="360" as="targetPoint" />
          </mxGeometry>
        </mxCell>
        <mxCell id="BKe6SNkLw5ovjMSRgHJT-83" value="" style="endArrow=none;html=1;rounded=0;fontSize=12;startSize=8;endSize=8;curved=1;exitX=0.5;exitY=0;exitDx=0;exitDy=0;" edge="1" parent="1" source="BKe6SNkLw5ovjMSRgHJT-79">
          <mxGeometry width="50" height="50" relative="1" as="geometry">
            <mxPoint x="1500" y="390" as="sourcePoint" />
            <mxPoint x="1420" y="310" as="targetPoint" />
          </mxGeometry>
        </mxCell>
        <mxCell id="BKe6SNkLw5ovjMSRgHJT-84" value="" style="rounded=0;whiteSpace=wrap;html=1;fillColor=default;fillStyle=solid;gradientColor=default;" vertex="1" parent="1">
          <mxGeometry x="1267.5" y="490" width="50" height="70" as="geometry" />
        </mxCell>
        <mxCell id="BKe6SNkLw5ovjMSRgHJT-85" value="" style="rounded=0;whiteSpace=wrap;html=1;fillColor=default;fillStyle=solid;gradientColor=default;" vertex="1" parent="1">
          <mxGeometry x="1395" y="490" width="50" height="70" as="geometry" />
        </mxCell>
        <mxCell id="BKe6SNkLw5ovjMSRgHJT-86" value="" style="rounded=0;whiteSpace=wrap;html=1;fillColor=default;fillStyle=solid;gradientColor=default;" vertex="1" parent="1">
          <mxGeometry x="1527.5" y="490" width="50" height="70" as="geometry" />
        </mxCell>
        <mxCell id="BKe6SNkLw5ovjMSRgHJT-87" value="" style="endArrow=none;html=1;rounded=0;fontSize=12;startSize=8;endSize=8;curved=1;entryX=0.5;entryY=1;entryDx=0;entryDy=0;exitX=0.5;exitY=0;exitDx=0;exitDy=0;" edge="1" parent="1" source="BKe6SNkLw5ovjMSRgHJT-86" target="BKe6SNkLw5ovjMSRgHJT-73">
          <mxGeometry width="50" height="50" relative="1" as="geometry">
            <mxPoint x="1370" y="480" as="sourcePoint" />
            <mxPoint x="1420" y="430" as="targetPoint" />
          </mxGeometry>
        </mxCell>
        <mxCell id="BKe6SNkLw5ovjMSRgHJT-88" value="" style="endArrow=none;html=1;rounded=0;fontSize=12;startSize=8;endSize=8;curved=1;entryX=0.5;entryY=1;entryDx=0;entryDy=0;exitX=0.5;exitY=0;exitDx=0;exitDy=0;" edge="1" parent="1" source="BKe6SNkLw5ovjMSRgHJT-85" target="BKe6SNkLw5ovjMSRgHJT-71">
          <mxGeometry width="50" height="50" relative="1" as="geometry">
            <mxPoint x="1370" y="480" as="sourcePoint" />
            <mxPoint x="1420" y="430" as="targetPoint" />
          </mxGeometry>
        </mxCell>
        <mxCell id="BKe6SNkLw5ovjMSRgHJT-89" value="" style="endArrow=none;html=1;rounded=0;fontSize=12;startSize=8;endSize=8;curved=1;exitX=0.5;exitY=1;exitDx=0;exitDy=0;entryX=0.5;entryY=0;entryDx=0;entryDy=0;" edge="1" parent="1" source="BKe6SNkLw5ovjMSRgHJT-70" target="BKe6SNkLw5ovjMSRgHJT-84">
          <mxGeometry width="50" height="50" relative="1" as="geometry">
            <mxPoint x="1370" y="480" as="sourcePoint" />
            <mxPoint x="1420" y="430" as="targetPoint" />
          </mxGeometry>
        </mxCell>
        <mxCell id="BKe6SNkLw5ovjMSRgHJT-90" value="Nev" style="ellipse;whiteSpace=wrap;html=1;labelBackgroundColor=none;gradientColor=default;fillColor=default;" vertex="1" parent="1">
          <mxGeometry x="2600" y="380" width="105" height="60" as="geometry" />
        </mxCell>
        <mxCell id="BKe6SNkLw5ovjMSRgHJT-91" value="Reszleg" style="ellipse;whiteSpace=wrap;html=1;labelBackgroundColor=none;gradientColor=default;fillColor=default;" vertex="1" parent="1">
          <mxGeometry x="2727.5" y="380" width="105" height="60" as="geometry" />
        </mxCell>
        <mxCell id="BKe6SNkLw5ovjMSRgHJT-92" value="" style="rounded=0;whiteSpace=wrap;html=1;fillColor=default;fillStyle=solid;gradientColor=default;" vertex="1" parent="1">
          <mxGeometry x="2627.5" y="490" width="50" height="70" as="geometry" />
        </mxCell>
        <mxCell id="BKe6SNkLw5ovjMSRgHJT-93" value="" style="rounded=0;whiteSpace=wrap;html=1;fillColor=default;fillStyle=solid;gradientColor=default;" vertex="1" parent="1">
          <mxGeometry x="2755" y="490" width="50" height="70" as="geometry" />
        </mxCell>
        <mxCell id="BKe6SNkLw5ovjMSRgHJT-94" value="" style="endArrow=none;html=1;rounded=0;fontSize=12;startSize=8;endSize=8;curved=1;entryX=0.5;entryY=1;entryDx=0;entryDy=0;exitX=0.5;exitY=0;exitDx=0;exitDy=0;" edge="1" parent="1" source="BKe6SNkLw5ovjMSRgHJT-93" target="BKe6SNkLw5ovjMSRgHJT-91">
          <mxGeometry width="50" height="50" relative="1" as="geometry">
            <mxPoint x="2730" y="441.88" as="sourcePoint" />
            <mxPoint x="2780" y="391.88" as="targetPoint" />
          </mxGeometry>
        </mxCell>
        <mxCell id="BKe6SNkLw5ovjMSRgHJT-95" value="" style="endArrow=none;html=1;rounded=0;fontSize=12;startSize=8;endSize=8;curved=1;exitX=0.5;exitY=1;exitDx=0;exitDy=0;entryX=0.5;entryY=0;entryDx=0;entryDy=0;" edge="1" parent="1" source="BKe6SNkLw5ovjMSRgHJT-90" target="BKe6SNkLw5ovjMSRgHJT-92">
          <mxGeometry width="50" height="50" relative="1" as="geometry">
            <mxPoint x="2730" y="441.88" as="sourcePoint" />
            <mxPoint x="2780" y="391.88" as="targetPoint" />
          </mxGeometry>
        </mxCell>
        <mxCell id="BKe6SNkLw5ovjMSRgHJT-96" value="" style="endArrow=none;html=1;rounded=0;fontSize=12;startSize=8;endSize=8;curved=1;entryX=0.5;entryY=1;entryDx=0;entryDy=0;exitX=0.5;exitY=0;exitDx=0;exitDy=0;" edge="1" parent="1" source="BKe6SNkLw5ovjMSRgHJT-90" target="BKe6SNkLw5ovjMSRgHJT-68">
          <mxGeometry width="50" height="50" relative="1" as="geometry">
            <mxPoint x="2636.25" y="400" as="sourcePoint" />
            <mxPoint x="2686.25" y="350" as="targetPoint" />
          </mxGeometry>
        </mxCell>
        <mxCell id="BKe6SNkLw5ovjMSRgHJT-97" value="" style="endArrow=none;html=1;rounded=0;fontSize=12;startSize=8;endSize=8;curved=1;entryX=0.5;entryY=1;entryDx=0;entryDy=0;exitX=0.5;exitY=0;exitDx=0;exitDy=0;" edge="1" parent="1" source="BKe6SNkLw5ovjMSRgHJT-91" target="BKe6SNkLw5ovjMSRgHJT-68">
          <mxGeometry width="50" height="50" relative="1" as="geometry">
            <mxPoint x="2636.25" y="400" as="sourcePoint" />
            <mxPoint x="2686.25" y="350" as="targetPoint" />
          </mxGeometry>
        </mxCell>
        <mxCell id="BKe6SNkLw5ovjMSRgHJT-99" value="V-R" style="rhombus;whiteSpace=wrap;html=1;gradientColor=default;" vertex="1" parent="1">
          <mxGeometry x="2500" y="320" width="85" height="80" as="geometry" />
        </mxCell>
        <mxCell id="BKe6SNkLw5ovjMSRgHJT-100" value="E-V" style="rhombus;whiteSpace=wrap;html=1;gradientColor=default;" vertex="1" parent="1">
          <mxGeometry x="2850" y="320" width="85" height="80" as="geometry" />
        </mxCell>
        <mxCell id="BKe6SNkLw5ovjMSRgHJT-101" value="" style="endArrow=none;html=1;rounded=0;fontSize=12;startSize=8;endSize=8;curved=1;entryX=0.5;entryY=1;entryDx=0;entryDy=0;exitX=0.5;exitY=0;exitDx=0;exitDy=0;" edge="1" parent="1" source="BKe6SNkLw5ovjMSRgHJT-99" target="BKe6SNkLw5ovjMSRgHJT-68">
          <mxGeometry width="50" height="50" relative="1" as="geometry">
            <mxPoint x="2640" y="410" as="sourcePoint" />
            <mxPoint x="2690" y="360" as="targetPoint" />
          </mxGeometry>
        </mxCell>
        <mxCell id="BKe6SNkLw5ovjMSRgHJT-102" value="" style="endArrow=none;html=1;rounded=0;fontSize=12;startSize=8;endSize=8;curved=1;exitX=0.5;exitY=0;exitDx=0;exitDy=0;" edge="1" parent="1" source="BKe6SNkLw5ovjMSRgHJT-100">
          <mxGeometry width="50" height="50" relative="1" as="geometry">
            <mxPoint x="2640" y="410" as="sourcePoint" />
            <mxPoint x="2720" y="310" as="targetPoint" />
          </mxGeometry>
        </mxCell>
        <mxCell id="BKe6SNkLw5ovjMSRgHJT-104" value="Etterem" style="ellipse;whiteSpace=wrap;html=1;labelBackgroundColor=none;gradientColor=default;fillColor=default;" vertex="1" parent="1">
          <mxGeometry x="3147.5" y="240" width="120" height="80" as="geometry" />
        </mxCell>
        <mxCell id="BKe6SNkLw5ovjMSRgHJT-105" value="Gyakornok" style="ellipse;whiteSpace=wrap;html=1;labelBackgroundColor=none;gradientColor=default;fillColor=default;" vertex="1" parent="1">
          <mxGeometry x="3152.5" y="245" width="110" height="70" as="geometry" />
        </mxCell>
        <mxCell id="BKe6SNkLw5ovjMSRgHJT-106" value="Gyakorlat" style="ellipse;whiteSpace=wrap;html=1;labelBackgroundColor=none;gradientColor=default;fillColor=default;" vertex="1" parent="1">
          <mxGeometry x="3155" y="400" width="105" height="60" as="geometry" />
        </mxCell>
        <mxCell id="BKe6SNkLw5ovjMSRgHJT-107" value="" style="endArrow=none;html=1;rounded=0;fontSize=12;startSize=8;endSize=8;curved=1;exitX=0.5;exitY=0;exitDx=0;exitDy=0;" edge="1" parent="1" source="BKe6SNkLw5ovjMSRgHJT-106">
          <mxGeometry width="50" height="50" relative="1" as="geometry">
            <mxPoint x="3187.5" y="380" as="sourcePoint" />
            <mxPoint x="3207.5" y="320" as="targetPoint" />
          </mxGeometry>
        </mxCell>
        <mxCell id="BKe6SNkLw5ovjMSRgHJT-109" value="&lt;div&gt;Utca&lt;/div&gt;" style="ellipse;whiteSpace=wrap;html=1;labelBackgroundColor=none;gradientColor=default;fillColor=default;" vertex="1" parent="1">
          <mxGeometry x="3100" y="490" width="105" height="60" as="geometry" />
        </mxCell>
        <mxCell id="BKe6SNkLw5ovjMSRgHJT-110" value="&lt;div&gt;Hazszam&lt;/div&gt;" style="ellipse;whiteSpace=wrap;html=1;labelBackgroundColor=none;gradientColor=default;fillColor=default;" vertex="1" parent="1">
          <mxGeometry x="3210" y="490" width="105" height="60" as="geometry" />
        </mxCell>
        <mxCell id="BKe6SNkLw5ovjMSRgHJT-111" value="" style="endArrow=none;html=1;rounded=0;fontSize=12;startSize=8;endSize=8;curved=1;entryX=0.5;entryY=1;entryDx=0;entryDy=0;exitX=0.5;exitY=0;exitDx=0;exitDy=0;" edge="1" parent="1" source="BKe6SNkLw5ovjMSRgHJT-109" target="BKe6SNkLw5ovjMSRgHJT-106">
          <mxGeometry width="50" height="50" relative="1" as="geometry">
            <mxPoint x="3177.5" y="420" as="sourcePoint" />
            <mxPoint x="3227.5" y="370" as="targetPoint" />
          </mxGeometry>
        </mxCell>
        <mxCell id="BKe6SNkLw5ovjMSRgHJT-113" value="" style="endArrow=none;html=1;rounded=0;fontSize=12;startSize=8;endSize=8;curved=0;entryX=0.5;entryY=1;entryDx=0;entryDy=0;exitX=0.5;exitY=0;exitDx=0;exitDy=0;" edge="1" parent="1" source="BKe6SNkLw5ovjMSRgHJT-110" target="BKe6SNkLw5ovjMSRgHJT-106">
          <mxGeometry width="50" height="50" relative="1" as="geometry">
            <mxPoint x="3177.5" y="420" as="sourcePoint" />
            <mxPoint x="3227.5" y="370" as="targetPoint" />
          </mxGeometry>
        </mxCell>
        <mxCell id="BKe6SNkLw5ovjMSRgHJT-114" value="Nev" style="ellipse;whiteSpace=wrap;html=1;labelBackgroundColor=none;gradientColor=default;fillColor=default;" vertex="1" parent="1">
          <mxGeometry x="2990" y="400" width="105" height="60" as="geometry" />
        </mxCell>
        <mxCell id="BKe6SNkLw5ovjMSRgHJT-115" value="Muszak" style="ellipse;whiteSpace=wrap;html=1;labelBackgroundColor=none;gradientColor=default;fillColor=default;" vertex="1" parent="1">
          <mxGeometry x="3315" y="405" width="105" height="60" as="geometry" />
        </mxCell>
        <mxCell id="BKe6SNkLw5ovjMSRgHJT-116" value="" style="endArrow=none;html=1;rounded=0;fontSize=12;startSize=8;endSize=8;curved=1;exitX=0.5;exitY=0;exitDx=0;exitDy=0;" edge="1" parent="1" source="BKe6SNkLw5ovjMSRgHJT-114">
          <mxGeometry width="50" height="50" relative="1" as="geometry">
            <mxPoint x="3177.5" y="420" as="sourcePoint" />
            <mxPoint x="3207.5" y="320" as="targetPoint" />
          </mxGeometry>
        </mxCell>
        <mxCell id="BKe6SNkLw5ovjMSRgHJT-117" value="" style="endArrow=none;html=1;rounded=0;fontSize=12;startSize=8;endSize=8;curved=1;exitX=0.5;exitY=0;exitDx=0;exitDy=0;" edge="1" parent="1" source="BKe6SNkLw5ovjMSRgHJT-115">
          <mxGeometry width="50" height="50" relative="1" as="geometry">
            <mxPoint x="3177.5" y="420" as="sourcePoint" />
            <mxPoint x="3207.5" y="320" as="targetPoint" />
          </mxGeometry>
        </mxCell>
        <mxCell id="BKe6SNkLw5ovjMSRgHJT-118" value="" style="rounded=0;whiteSpace=wrap;html=1;fillColor=default;fillStyle=solid;gradientColor=default;" vertex="1" parent="1">
          <mxGeometry x="3017.5" y="500" width="50" height="70" as="geometry" />
        </mxCell>
        <mxCell id="BKe6SNkLw5ovjMSRgHJT-120" value="" style="rounded=0;whiteSpace=wrap;html=1;fillColor=default;fillStyle=solid;gradientColor=default;" vertex="1" parent="1">
          <mxGeometry x="3127.5" y="590" width="50" height="70" as="geometry" />
        </mxCell>
        <mxCell id="BKe6SNkLw5ovjMSRgHJT-121" value="" style="rounded=0;whiteSpace=wrap;html=1;fillColor=default;fillStyle=solid;gradientColor=default;" vertex="1" parent="1">
          <mxGeometry x="3237.5" y="590" width="50" height="70" as="geometry" />
        </mxCell>
        <mxCell id="BKe6SNkLw5ovjMSRgHJT-122" value="" style="endArrow=none;html=1;rounded=0;fontSize=12;startSize=8;endSize=8;curved=1;entryX=0.5;entryY=1;entryDx=0;entryDy=0;exitX=0.5;exitY=0;exitDx=0;exitDy=0;" edge="1" parent="1" source="BKe6SNkLw5ovjMSRgHJT-118" target="BKe6SNkLw5ovjMSRgHJT-114">
          <mxGeometry width="50" height="50" relative="1" as="geometry">
            <mxPoint x="3107.5" y="480" as="sourcePoint" />
            <mxPoint x="3157.5" y="430" as="targetPoint" />
          </mxGeometry>
        </mxCell>
        <mxCell id="BKe6SNkLw5ovjMSRgHJT-124" value="" style="endArrow=none;html=1;rounded=0;fontSize=12;startSize=8;endSize=8;curved=1;entryX=0.5;entryY=1;entryDx=0;entryDy=0;exitX=0.5;exitY=0;exitDx=0;exitDy=0;" edge="1" parent="1" source="BKe6SNkLw5ovjMSRgHJT-120" target="BKe6SNkLw5ovjMSRgHJT-109">
          <mxGeometry width="50" height="50" relative="1" as="geometry">
            <mxPoint x="3102.5" y="540" as="sourcePoint" />
            <mxPoint x="3152.5" y="490" as="targetPoint" />
          </mxGeometry>
        </mxCell>
        <mxCell id="BKe6SNkLw5ovjMSRgHJT-125" value="" style="endArrow=none;html=1;rounded=0;fontSize=12;startSize=8;endSize=8;curved=1;entryX=0.5;entryY=1;entryDx=0;entryDy=0;exitX=0.5;exitY=0;exitDx=0;exitDy=0;" edge="1" parent="1" source="BKe6SNkLw5ovjMSRgHJT-121" target="BKe6SNkLw5ovjMSRgHJT-110">
          <mxGeometry width="50" height="50" relative="1" as="geometry">
            <mxPoint x="3090" y="540" as="sourcePoint" />
            <mxPoint x="3140" y="490" as="targetPoint" />
          </mxGeometry>
        </mxCell>
        <mxCell id="BKe6SNkLw5ovjMSRgHJT-126" value="" style="rounded=0;whiteSpace=wrap;html=1;fillColor=default;fillStyle=solid;gradientColor=default;" vertex="1" parent="1">
          <mxGeometry x="3342.5" y="505" width="50" height="70" as="geometry" />
        </mxCell>
        <mxCell id="BKe6SNkLw5ovjMSRgHJT-127" value="" style="endArrow=none;html=1;rounded=0;fontSize=12;startSize=8;endSize=8;curved=1;entryX=0.5;entryY=1;entryDx=0;entryDy=0;exitX=0.5;exitY=0;exitDx=0;exitDy=0;" edge="1" parent="1" source="BKe6SNkLw5ovjMSRgHJT-126" target="BKe6SNkLw5ovjMSRgHJT-115">
          <mxGeometry width="50" height="50" relative="1" as="geometry">
            <mxPoint x="3090" y="545" as="sourcePoint" />
            <mxPoint x="3140" y="495" as="targetPoint" />
          </mxGeometry>
        </mxCell>
        <mxCell id="BKe6SNkLw5ovjMSRgHJT-128" value="Vkod" style="rhombus;whiteSpace=wrap;html=1;gradientColor=default;" vertex="1" parent="1">
          <mxGeometry x="1752.5" y="320" width="80" height="80" as="geometry" />
        </mxCell>
        <mxCell id="BKe6SNkLw5ovjMSRgHJT-129" value="V-R" style="rhombus;whiteSpace=wrap;html=1;gradientColor=default;" vertex="1" parent="1">
          <mxGeometry x="2395" y="320" width="80" height="80" as="geometry" />
        </mxCell>
        <mxCell id="BKe6SNkLw5ovjMSRgHJT-130" value="" style="endArrow=none;html=1;rounded=0;fontSize=12;startSize=8;endSize=8;curved=1;entryX=0.5;entryY=0;entryDx=0;entryDy=0;exitX=0.5;exitY=1;exitDx=0;exitDy=0;" edge="1" parent="1" source="SZ3AhENpPmN6v7QVJfEI-1" target="BKe6SNkLw5ovjMSRgHJT-128">
          <mxGeometry width="50" height="50" relative="1" as="geometry">
            <mxPoint x="2100" y="320" as="sourcePoint" />
            <mxPoint x="1900" y="390" as="targetPoint" />
          </mxGeometry>
        </mxCell>
        <mxCell id="BKe6SNkLw5ovjMSRgHJT-131" value="" style="endArrow=none;html=1;rounded=0;fontSize=12;startSize=8;endSize=8;curved=1;exitX=0.5;exitY=0;exitDx=0;exitDy=0;" edge="1" parent="1" source="BKe6SNkLw5ovjMSRgHJT-129">
          <mxGeometry width="50" height="50" relative="1" as="geometry">
            <mxPoint x="2260" y="460" as="sourcePoint" />
            <mxPoint x="2100" y="320" as="targetPoint" />
          </mxGeometry>
        </mxCell>
        <mxCell id="BKe6SNkLw5ovjMSRgHJT-132" value="Muszak" style="ellipse;whiteSpace=wrap;html=1;labelBackgroundColor=none;gradientColor=default;fillColor=default;" vertex="1" parent="1">
          <mxGeometry x="3320" y="407.5" width="95" height="55" as="geometry" />
        </mxCell>
        <mxCell id="BKe6SNkLw5ovjMSRgHJT-133" value="" style="endArrow=none;html=1;rounded=0;fontSize=12;startSize=8;endSize=8;curved=1;entryX=0.5;entryY=1;entryDx=0;entryDy=0;exitX=0.5;exitY=0;exitDx=0;exitDy=0;" edge="1" parent="1" source="BKe6SNkLw5ovjMSRgHJT-68" target="BKe6SNkLw5ovjMSRgHJT-28">
          <mxGeometry width="50" height="50" relative="1" as="geometry">
            <mxPoint x="2600" y="200" as="sourcePoint" />
            <mxPoint x="1760" y="60" as="targetPoint" />
          </mxGeometry>
        </mxCell>
        <mxCell id="BKe6SNkLw5ovjMSRgHJT-134" value="" style="endArrow=none;dashed=1;html=1;dashPattern=1 3;strokeWidth=2;rounded=0;fontSize=12;startSize=8;endSize=8;entryX=0.5;entryY=1;entryDx=0;entryDy=0;exitX=0.5;exitY=1;exitDx=0;exitDy=0;edgeStyle=orthogonalEdgeStyle;" edge="1" parent="1" source="BKe6SNkLw5ovjMSRgHJT-99" target="BKe6SNkLw5ovjMSRgHJT-129">
          <mxGeometry width="50" height="50" relative="1" as="geometry">
            <mxPoint x="2340" y="490" as="sourcePoint" />
            <mxPoint x="2390" y="440" as="targetPoint" />
            <Array as="points">
              <mxPoint x="2543" y="735" />
              <mxPoint x="2435" y="735" />
            </Array>
          </mxGeometry>
        </mxCell>
        <mxCell id="BKe6SNkLw5ovjMSRgHJT-136" value="" style="endArrow=none;dashed=1;html=1;dashPattern=1 3;strokeWidth=2;rounded=0;fontSize=12;startSize=8;endSize=8;entryX=0.5;entryY=1;entryDx=0;entryDy=0;exitX=0;exitY=1;exitDx=0;exitDy=0;edgeStyle=orthogonalEdgeStyle;startArrow=classic;startFill=1;" edge="1" parent="1" source="BKe6SNkLw5ovjMSRgHJT-32" target="BKe6SNkLw5ovjMSRgHJT-100">
          <mxGeometry width="50" height="50" relative="1" as="geometry">
            <mxPoint x="600" y="875" as="sourcePoint" />
            <mxPoint x="2402" y="302" as="targetPoint" />
            <Array as="points">
              <mxPoint x="480" y="790" />
              <mxPoint x="2893" y="790" />
            </Array>
          </mxGeometry>
        </mxCell>
      </root>
    </mxGraphModel>
  </diagram>
</mxfile>
